<svg width="17" height="17" viewBox="0 0 17 17" fill="none" xmlns="http://www.w3.org/2000/svg">
<path fill-rule="evenodd" clip-rule="evenodd" d="M2.11819 3.45137C2.34225 3.08038 3.57677 1.73099 4.45774 1.77173C4.72108 1.79355 4.95387 1.95286 5.14301 2.13763C5.57731 2.56172 6.82056 4.16571 6.89112 4.50324C7.0628 5.33106 6.07636 5.80826 6.37826 6.64262C7.14792 8.52595 8.4741 9.85206 10.3582 10.621C11.1919 10.9228 11.6691 9.93644 12.497 10.1088C12.8338 10.1794 14.4386 11.4226 14.8627 11.8569C15.0468 12.0453 15.2068 12.2788 15.2287 12.5421C15.2614 13.4696 13.8283 14.7215 13.5489 14.8815C12.8898 15.3529 12.03 15.3449 10.9817 14.8575C8.05653 13.6405 3.38181 9.05406 2.1422 6.01849C1.66789 4.97607 1.63515 4.11043 2.11819 3.45137Z" stroke="#200E32" stroke-linecap="round" stroke-linejoin="round"/>
</svg>
