<svg width="18" height="18" viewBox="0 0 18 18" fill="none" xmlns="http://www.w3.org/2000/svg">
<mask id="mask0_2_20" style="mask-type:alpha" maskUnits="userSpaceOnUse" x="0" y="0" width="18" height="18">
<rect width="18" height="18" fill="#C4C4C4"/>
</mask>
<g mask="url(#mask0_2_20)">
<path d="M13.772 4.2276C11.1348 1.59034 6.86586 1.58992 4.22823 4.2276C1.59095 6.86485 1.59055 11.1338 4.22823 13.7714C6.86543 16.4087 11.1344 16.4091 13.772 13.7714C16.4093 11.1341 16.4097 6.86525 13.772 4.2276ZM13.49 12.8094C13.1746 12.5275 12.8374 12.2779 12.4819 12.0629C12.7168 11.2512 12.856 10.358 12.889 9.42956H14.873C14.7833 10.6811 14.3025 11.855 13.49 12.8094ZM3.12719 9.42956H5.11126C5.14417 10.358 5.28338 11.2512 5.51835 12.0629C5.16284 12.2779 4.82557 12.5275 4.51026 12.8094C3.69776 11.855 3.21693 10.6811 3.12719 9.42956ZM4.51029 5.18958C4.82559 5.47154 5.16287 5.72106 5.51838 5.93609C5.2834 6.74777 5.14419 7.64097 5.11129 8.56945H3.12719C3.21693 7.31797 3.69776 6.14398 4.51029 5.18958ZM8.57008 6.02498C7.8687 5.97482 7.19244 5.80207 6.56549 5.51709C6.93011 4.57815 7.6023 3.45201 8.57008 3.17293V6.02498ZM8.57008 6.8867V8.56947H5.97174C6.00151 7.78406 6.11279 7.02986 6.29787 6.33979C7.01034 6.65124 7.77657 6.83724 8.57008 6.8867ZM8.57008 9.42956V11.1123C7.77657 11.1618 7.01034 11.3478 6.29787 11.6592C6.11279 10.9692 6.00151 10.215 5.97174 9.42956H8.57008ZM8.57008 11.974V14.8261C7.60235 14.547 6.93017 13.421 6.56549 12.4819C7.19244 12.197 7.8687 12.0242 8.57008 11.974ZM9.43016 11.974C10.1315 12.0242 10.8078 12.197 11.4348 12.4819C11.0701 13.4209 10.3979 14.547 9.43016 14.8261V11.974ZM9.43016 11.1123V9.42956H12.0285C11.9987 10.215 11.8874 10.9692 11.7024 11.6592C10.9899 11.3478 10.2237 11.1618 9.43016 11.1123ZM9.43016 8.56947V6.8867C10.2237 6.83724 10.9899 6.65124 11.7024 6.33979C11.8874 7.02986 11.9987 7.78406 12.0285 8.56947H9.43016ZM9.43016 6.02498V3.17295C10.3979 3.45203 11.0701 4.57818 11.4348 5.51711C10.8078 5.80207 10.1315 5.97482 9.43016 6.02498ZM11.3618 3.60231C11.9123 3.84337 12.4259 4.17024 12.8863 4.57581C12.6671 4.76903 12.4359 4.94423 12.1945 5.1009C11.98 4.56999 11.7061 4.05403 11.3618 3.60231ZM5.80576 5.1009C5.5643 4.94423 5.33309 4.76903 5.11392 4.57581C5.57431 4.17024 6.08789 3.84337 6.63839 3.60231C6.2941 4.05408 6.02019 4.57004 5.80576 5.1009ZM5.80579 12.8981C6.02019 13.429 6.29415 13.945 6.63841 14.3967C6.08792 14.1557 5.57434 13.8288 5.11395 13.4232C5.33309 13.23 5.56433 13.0548 5.80579 12.8981ZM12.1945 12.8981C12.4359 13.0548 12.6671 13.23 12.8863 13.4232C12.4259 13.8288 11.9123 14.1556 11.3618 14.3967C11.7061 13.945 11.98 13.429 12.1945 12.8981ZM12.889 8.56947C12.8561 7.641 12.7169 6.74777 12.4819 5.93612C12.8374 5.72108 13.1746 5.47156 13.49 5.18961C14.3025 6.14398 14.7833 7.31797 14.873 8.56947H12.889Z" fill="black"/>
</g>
</svg>
