<svg width="34" height="34" viewBox="0 0 34 34" fill="none" xmlns="http://www.w3.org/2000/svg">
<path fill-rule="evenodd" clip-rule="evenodd" d="M16.9997 3.27673C9.41969 3.27673 3.27576 9.42066 3.27576 17.0007C3.27576 24.5807 9.41969 30.7246 16.9997 30.7246C24.5798 30.7246 30.7237 24.5807 30.7237 17.0007C30.7237 9.42066 24.5798 3.27673 16.9997 3.27673ZM16.9997 5.33533C23.4428 5.33533 28.6651 10.5576 28.6651 17.0007C28.6651 23.4438 23.4428 28.6661 16.9997 28.6661C10.5566 28.6661 5.33436 23.4438 5.33436 17.0007C5.33436 10.5576 10.5566 5.33533 16.9997 5.33533ZM17.5552 11.1606C17.487 10.6582 17.0564 10.271 16.5353 10.271C15.9668 10.271 15.506 10.7319 15.506 11.3003V17.9523L15.5175 18.1057C15.5629 18.4077 15.7411 18.6771 16.008 18.8363L21.1819 21.9228L21.3067 21.9863C21.773 22.1851 22.3262 22.0137 22.5932 21.5662L22.6567 21.4414C22.8555 20.975 22.6841 20.4218 22.2366 20.1549L17.5641 17.3664L17.5646 11.3003L17.5552 11.1606Z" fill="white"/>
</svg>
